# xmcd
# 
# Track frame offsets:
#     150
#     13762
#     23547
#     38247
#     52425
#     65047
#     77410
#     94690
#     103990
#     113465
#     127095
#     140487
#     152385
#     161990
#     175947
# 
# Disc length: 2517
# 
# Revision: 15
# Processed by: cddbd v1.5.2PL0 Copyright (c) Steve Scherf et al.
# Submitted via: fre:ac v1.0.17
# 
DISCID=c809d30f
DTITLE=Various Artist - Classic Country: 1970-1974 D1
DYEAR=2010
DGENRE=Country
TTITLE0=Loretta Lynn - Coal Miner's Daughter
TTITLE1=Mel Tillis - I Ain't Never
TTITLE2=Olivia Newton-John - If You Love Me (Let Me Know)
TTITLE3=George Jones - The Grand Tour
TTITLE4=Donna Fargo - Funny Face
TTITLE5=Merle Haggard - If We Make It Through December
TTITLE6=Ray Price - For the Good Times
TTITLE7=Charley Pride - Kiss An Angel Good Mornin'
TTITLE8=Dottie West - Country Sunshine
TTITLE9=Conway Twitty - You've Never Been This Far Before
TTITLE10=Charlie Rich - Behind Closed Doors
TTITLE11=Tammy Wynette - He Loves Me All the Way
TTITLE12=Tom T. Hall - I Love
TTITLE13=Dolly Parton - Coat of Many Colors
TTITLE14=The Statler Brothers - Do You Remember These
EXTD=
EXTT0=
EXTT1=
EXTT2=
EXTT3=
EXTT4=
EXTT5=
EXTT6=
EXTT7=
EXTT8=
EXTT9=
EXTT10=
EXTT11=
EXTT12=
EXTT13=
EXTT14=
PLAYORDER=
